<svg xmlns="http://www.w3.org/2000/svg" width="256" height="256"><path fill="#1976D2" fill-opacity=".039" fill-rule="evenodd" d="M0 128.004v128.004l128.25-.254 128.25-.254.254-127.75L257.008 0H0zm.485.496c0 70.4.119 99.053.265 63.672s.146-92.98 0-128S.485 58.1.485 128.5"/><path fill="#1976D2" fill-opacity=".241" fill-rule="evenodd" d="M39.608 2.508C20.778 7.732 6.298 22.241 1.489 40.703c-2.17 8.331-2.19 162.326-.022 172.554 4.222 19.926 20.521 35.906 41.033 40.232 5.48 1.156 15.524 1.48 46.25 1.494L128 255v-40.125l6.75 5.728c3.713 3.15 8.696 6.59 11.075 7.643 5.705 2.525 13.947 3.301 19.693 1.854 5.922-1.492 67.506-39.144 72.661-44.426 6.399-6.556 7.744-11.996 9.039-36.567l1.139-21.607 3.55.105 3.55.105.328 39.368c.18 21.652.527 39.568.771 39.812s.392-36.419.329-81.473-.443-80.225-.844-78.156c-1.15 5.928-2.346 5.821-1.543-.139.533-3.954.42-5.189-.427-4.666-.817.505-.952-.082-.465-2.021.454-1.808.329-2.513-.367-2.083-.644.398-.864-.069-.568-1.202.266-1.018-.204-2.54-1.046-3.382-.841-.841-1.214-1.845-.829-2.231s-.116-1.298-1.114-2.028-1.785-1.593-1.749-1.918c.037-.325.067-1.047.067-1.605s-3.62-4.649-8.044-9.09c-5.295-5.317-8.559-7.879-9.552-7.498-.829.319-1.274.2-.987-.263.701-1.135-4.284-3.336-5.646-2.493-.692.427-.786.191-.261-.657.594-.962.362-1.15-.846-.686-.915.351-1.664.172-1.664-.398 0-.601-.892-.753-2.125-.361-1.566.497-1.92.341-1.344-.59.567-.917.202-1.113-1.327-.714-1.159.304-2.28.037-2.489-.592C213.107.819 46.166.689 39.608 2.508m125.205 30.175c.721.289 1.584.253 1.916-.079s-.258-.568-1.312-.525c-1.165.048-1.402.285-.604.604m-6.063 1.889c-3.877 2.103-3.438 2.829.5.827 3.77-1.918 4.437-2.414 3.167-2.359-.505.022-2.155.711-3.667 1.532m19.333-1.207c.23.2 1.542.9 2.917 1.555 2.357 1.122 2.389 1.102.559-.365-1.593-1.276-4.848-2.391-3.476-1.19M187 38.378c0 .207.787.995 1.75 1.75 1.586 1.243 1.621 1.208.378-.378-1.307-1.666-2.128-2.195-2.128-1.372m4 3c0 .207.787.995 1.75 1.75 1.586 1.243 1.621 1.208.378-.378-1.307-1.666-2.128-2.195-2.128-1.372M134 59.12c-17.875 9.37-33.513 17.98-34.75 19.133-3.021 2.814-2.836 6.296.5 9.407 4.308 4.018 50.568 42.833 55.896 46.899 4.496 3.432 5.133 3.624 10.816 3.252 5.721-.375 7.482-1.243 33.538-16.521 15.125-8.868 29.518-17.399 31.984-18.957 9.153-5.783 7.767-11.559-5.167-21.533-31.926-24.62-47.541-36.205-50.422-37.409-6.587-2.752-8.483-2.048-42.395 15.729m4.441-13.565c-1.864 1.494-1.852 1.512.309.465 1.238-.6 2.25-1.3 2.25-1.555 0-.765-.519-.544-2.559 1.09M195 44.378c0 .207.787.995 1.75 1.75 1.586 1.243 1.621 1.208.378-.378-1.307-1.666-2.128-2.195-2.128-1.372M.477 126.5c0 45.1.123 63.404.273 40.675.15-22.728.15-59.628 0-82C.6 62.804.477 81.4.477 126.5M199 47.378c0 .207.787.995 1.75 1.75 1.586 1.243 1.621 1.208.378-.378-1.307-1.666-2.128-2.195-2.128-1.372m9 7c0 .207.787.995 1.75 1.75 1.586 1.243 1.621 1.208.378-.378-1.307-1.666-2.128-2.195-2.128-1.372m4 3c0 .207.787.995 1.75 1.75 1.586 1.243 1.621 1.208.378-.378-1.307-1.666-2.128-2.195-2.128-1.372m-46.999 2.745c-7.296 2.91-9.379 10.227-4.344 15.261 3.199 3.199 6.125 4.043 11.515 3.32 5.305-.712 9.828-4.931 9.828-9.169 0-3.978-2.062-6.862-6.367-8.905-3.855-1.829-6.946-1.977-10.632-.507M221 64.378c0 .207.787.995 1.75 1.75 1.586 1.243 1.621 1.208.378-.378-1.307-1.666-2.128-2.195-2.128-1.372m4 3c0 .207.787.995 1.75 1.75 1.586 1.243 1.621 1.208.378-.378-1.307-1.666-2.128-2.195-2.128-1.372m5 4c0 .207.787.995 1.75 1.75 1.586 1.243 1.621 1.208.378-.378-1.307-1.666-2.128-2.195-2.128-1.372M235.5 76c.995 1.1 2.035 2 2.31 2s-.315-.9-1.31-2-2.035-2-2.31-2 .315.9 1.31 2m-107.169 3.924c-9.689 4.429-8.485 15.342 2.003 18.166C137.39 99.99 146 95.039 146 89.082c0-7.901-9.568-12.86-17.669-9.158m68.002 3.771c-2.917.568-7.114 4.585-7.848 7.509-1.455 5.798 4.543 11.785 11.815 11.792 12.933.013 16.604-13.715 4.982-18.634-3.2-1.354-4.809-1.474-8.949-.667M90.499 97.188c-.338 1.821-.476 18.198-.307 36.393l.308 33.081 3 4.719c3.497 5.501 52.086 47.047 56.243 48.091 5.065 1.271 5.46-.264 6.861-26.665 1.758-33.137 1.73-39.301-.198-43.364-1.064-2.242-11.734-11.937-32.082-29.151-16.768-14.186-31.1-25.933-31.848-26.104-.855-.196-1.591.92-1.977 3m158.866 8.312c.003 5.5.171 7.622.373 4.716.203-2.905.201-7.405-.004-10s-.371-.216-.369 5.284m-91.167-1.883c-3.507 1.788-6.198 5.883-6.198 9.433 0 3.116 6.184 8.925 9.65 9.065 7.081.286 11.564-1.695 13.854-6.123 4.439-8.583-7.707-17.268-17.306-12.375M230 114.139c-17.026 9.657-54.127 32.097-56.832 34.373-2.134 1.796-3.623 4.34-4.579 7.825-1.555 5.666-4.326 59.661-3.159 61.55.378.612 1.252 1.113 1.941 1.113 1.333 0 60.98-36.152 63.787-38.661 4.238-3.789 5.624-10.142 6.727-30.839.968-18.173 1.486-34.016 1.218-37.25-.17-2.06-3.28-1.414-9.103 1.889m-126.718 12.067c-1.22.589-2.7 2.531-3.289 4.315-2.074 6.285 3.82 15.499 9.892 15.464 3.175-.019 4.46-.81 5.965-3.669 2.499-4.748-.065-12.257-5.27-15.43-3.477-2.121-4.178-2.186-7.298-.68m99.218 23.961c-9.284 5.135-13.638 17.786-8.045 23.378 6.441 6.442 17.782.24 20.719-11.332 2.235-8.806-5.404-16.067-12.674-12.046m-72.978 5.808c-1.377 1.522-1.667 3.042-1.265 6.615.859 7.619 6.638 13.406 12.033 12.052 3.658-.918 5.041-3.952 4.239-9.299-1.359-9.06-10.258-14.615-15.007-9.368m-20.128 10.546c-2.055 3.137-1.382 9.672 1.38 13.392 6.743 9.083 16.488 4.582 13.279-6.132-2.604-8.69-10.998-12.847-14.659-7.26"/><path fill="#1976D2" fill-opacity=".194" fill-rule="evenodd" d="M45.5 1.699C30.258 3.725 13.298 15.585 6.523 28.955.69 40.466.726 40.14.262 85.75L-.168 128h8.692c8.514 0 8.681.046 8.132 2.25-2.593 10.408-1.891 16.274 2.553 21.336 8.524 9.708 32.831 15.294 52.974 12.174l8.684-1.345 1.132 4.542c2.499 10.022 5.462 13.296 34.001 37.561 22.845 19.424 27.435 22.89 32.5 24.544 4.828 1.577 15.906 1.591 19.876.026 5.45-2.149 65.131-39.297 68.812-42.832 7.894-7.579 8.945-13.3 10.89-59.262 1.495-35.331 1.205-36.933-8.405-46.44-6.742-6.67-52.318-41.83-58.4-45.054-2.809-1.489-5.688-1.998-11.273-1.994l-7.5.006-17 9.185-17 9.185-.267-25.441L127.966 1l-39.733.15c-21.853.082-41.083.329-42.733.549M163.503 43.28c-1.099.671-15.489 8.262-31.977 16.869-16.489 8.608-31.002 16.561-32.253 17.675C97.86 79.082 97 80.988 97 82.86c0 2.722 2.848 5.403 29.565 27.826 16.261 13.648 30.732 25.428 32.159 26.179 4.768 2.509 11.546 1.725 18.483-2.14 17.146-9.551 56.517-33.057 58.519-34.937 3.101-2.913 2.996-7.776-.249-11.633-2.748-3.266-52.548-41.558-57.748-44.405-3.672-2.01-11.292-2.261-14.226-.47m-2.58 19.643c-3.91 3.91-3.928 8.226-.051 12.103 5.151 5.151 13.115 5.141 18.278-.023 6.585-6.585.9-15.003-10.131-15.003-4.384 0-5.619.446-8.096 2.923m-34.148 17.578C123.537 82.327 122 84.902 122 88.5c0 5.921 4.728 9.5 12.55 9.5 3.955 0 5.158-.508 8.05-3.4 4.205-4.205 4.364-7.489.568-11.738-2.398-2.684-3.663-3.225-8.25-3.533q-5.418-.364-8.143 1.172m65.785 5.63c-5.959 4.688-5.026 11.997 1.956 15.31 9.885 4.69 21.096-3.824 16.454-12.496-2.674-4.998-13.525-6.656-18.41-2.814M90.623 94.54c-.343.893-.619 16.999-.613 35.792.009 33.875.03 34.212 2.389 39.278 2.07 4.446 5.648 7.885 27.574 26.5 13.857 11.764 26.327 21.99 27.71 22.724 3.881 2.058 7.132.76 7.746-3.092 1.236-7.754 3.248-60.329 2.423-63.315-.485-1.758-1.727-4.269-2.759-5.581-1.919-2.441-61.414-53.109-62.981-53.638-.476-.161-1.146.438-1.489 1.332m68.877 8.863c-6.049 2.67-8.501 7.761-6.035 12.53 5.021 9.71 22.393 7.038 22.503-3.46.042-3.951-2.412-7.343-6.567-9.079-4.082-1.706-6.022-1.704-9.901.009m72.5 9.243c-29.519 17.234-57.939 34.614-59.702 36.511-4.395 4.729-5.014 8.255-6.298 35.843-1.39 29.87-1.267 33.338 1.198 33.805 1.689.32 59.131-34.114 63.688-38.178 5.231-4.664 5.935-8.264 7.637-39.072.876-15.847 1.355-29.43 1.066-30.184-.761-1.984-2.51-1.69-7.589 1.275m-130.345 15.183c-3.452 3.814-1.37 12.648 3.925 16.655 6.037 4.567 12.718-1.472 10.435-9.432-2.188-7.628-10.3-11.709-14.36-7.223m100.845 22.56c-3.876 1.752-7.013 5.201-8.952 9.843-1.937 4.635-1.962 8.067-.085 11.696 1.673 3.236 3.324 4.072 8.042 4.072 9.489 0 17.826-17.609 11.245-23.752-3.041-2.838-6.639-3.491-10.25-1.859m-72.943 5.834c-2.051 2.927-1.935 6.347.386 11.461 5.078 11.183 17.145 7.784 13.988-3.939-2.238-8.313-10.714-12.748-14.374-7.522m-18.984 9.347c-4.107 4.106-1.964 14.001 3.792 17.511 3.886 2.369 4.84 2.383 7.645.112 4.116-3.333 2.194-13.835-3.227-17.632-2.849-1.996-6.209-1.992-8.21.009"/><path fill="#1976D2" fill-opacity=".787" fill-rule="evenodd" d="M51.453 20.266c-8.431 3.414-14.587 9.691-17.294 17.633-3.039 8.914-.435 21.092 5.916 27.667l2.962 3.067-2.584 7.933C39.032 80.93 34.697 91.25 30.819 99.5c-13.637 29.014-14.138 30.342-14.626 38.756-.411 7.078-.224 8.099 2.146 11.679 3.375 5.1 14.085 10.398 25.603 12.663 8.266 1.626 25.808 1.525 34.808-.202 2.823-.541 3.25-.35 3.25 1.453 0 1.142.94 4.589 2.089 7.66 2.697 7.207 6.675 11.183 35.702 35.677 17.006 14.35 24.543 20.081 27.928 21.234 5.521 1.881 15.388 1.99 20.325.225 4.069-1.456 65.288-38.847 68.749-41.991 1.261-1.146 3.657-4.854 5.324-8.241 2.929-5.948 3.079-6.934 4.429-29.035.769-12.583 1.411-30.327 1.426-39.432.042-25.064 2.13-22.235-40.472-54.855-35.213-26.964-33.945-26.738-63.301-11.249a24191 24191 0 0 1-34.334 18.075c-8.599 4.514-16.571 9.206-17.716 10.424-1.145 1.219-3.393 4.615-4.997 7.547l-2.915 5.331-2.699-8.106-2.7-8.106 3.604-4.21C86.287 60.305 89 52.942 89 47c0-9.789-6.674-20.732-15.372-25.207-4.974-2.56-17.496-3.421-22.175-1.527m4.311 7.73c-8.227 2.477-13.45 8.559-14.426 16.797-.766 6.469.894 11.216 5.739 16.412C49.77 64.092 51 66.32 51 68.308c0 5.093-5.861 20.66-14.944 39.692-13.869 29.06-14.67 32.824-8.276 38.905 7.075 6.727 24.648 10.234 41.425 8.265 5.494-.644 10.395-1.423 10.892-1.73.501-.31.903-12.487.903-27.361V99.275l-2.995-7.263c-3.761-9.121-7.119-20.309-7.226-24.077-.058-2.052 1.096-4.16 4.007-7.318 2.349-2.549 4.57-6.227 5.222-8.647 3.791-14.077-10.425-28.135-24.244-23.974m91.962 23.456C107.477 72.25 99.651 76.587 97.735 79.153c-3.65 4.889-3.714 4.821 35.182 37.347 27.023 22.597 26.126 22 33.001 22 4.814 0 6.711-.61 12.624-4.06L210 116.091c13.475-7.86 25.287-15.195 26.25-16.301.985-1.132 1.75-3.619 1.75-5.688 0-5.021-3.938-8.689-33-30.736C181.129 45.257 174.525 41 170.307 41c-1.295 0-11.456 4.703-22.581 10.452m15.058 10.286c-8.65 5.364-4.18 16.262 6.67 16.262 8.563 0 13.93-5.228 11.616-11.316-2.224-5.849-12.394-8.6-18.286-4.946m-35.47 19.212c-5.973 3.642-6.858 8.291-2.505 13.163 5.503 6.159 17.399 4.466 19.946-2.839 3.017-8.654-8.753-15.621-17.441-10.324m66.461 4.551c-10.659 6.009-1.857 19.845 10.461 16.444 4.186-1.155 7.764-5.103 7.764-8.564 0-1.292-1.264-3.764-2.809-5.494-2.283-2.554-3.736-3.217-7.75-3.533-3.232-.254-5.884.143-7.666 1.147M90.219 94.75c-.396.963-.719 16.825-.719 35.25 0 38.853.077 39.275 8.75 47.62 4.9 4.714 40.726 35.242 47.135 40.165 3.203 2.46 7.795 2.908 9.443.922.629-.758 1.753-14.423 2.72-33.072l1.647-31.781-2.347-4.387c-1.787-3.34-9.71-10.607-33.17-30.427C106.726 104.718 92.425 93 91.897 93s-1.283.787-1.678 1.75m67.556 9.809c-7.867 4.269-5.424 15.291 3.772 17.016 6.416 1.204 14.453-3.613 14.453-8.663 0-3.209-2.311-7.022-5.145-8.487-3.527-1.824-9.587-1.762-13.08.134m66.155 12.547c-16.114 9.212-43.276 25.45-48.581 29.043-7.518 5.091-8.083 7.409-9.82 40.298-.841 15.914-1.529 29.266-1.529 29.672 0 1.738 3.152 3.757 4.82 3.088 5.876-2.357 60.726-37.069 63.599-40.249 2.383-2.638 3.708-5.359 4.433-9.11 1.298-6.71 3.707-55.95 2.847-58.191-.35-.911-1.245-1.657-1.988-1.657-.744 0-6.945 3.198-13.781 7.106M102 128c-2.334 2.334-2.548 5.77-.638 10.282 4.079 9.637 14.638 9.758 14.638.168 0-9.266-8.694-15.756-14-10.45m98.45 23.988c-4.309 2.762-7.783 9.391-7.783 14.853 0 11.932 14.448 11.815 20.247-.164 1.147-2.37 2.086-5.987 2.086-8.038 0-7.521-7.7-11.041-14.55-6.651m-69.879 3.583c-1 1.001-1.571 3.35-1.571 6.466 0 4.048.536 5.504 3.104 8.428 2.396 2.73 3.869 3.535 6.464 3.535 7.488 0 7.366-11.974-.183-17.912-3.165-2.49-5.674-2.656-7.814-.517m-19.464 10.067c-2.068 1.448-2.282 2.244-1.885 7.02.348 4.198 1.076 6.043 3.299 8.364 3.451 3.602 8.789 4.135 10.444 1.044 4.358-8.143-5.06-21.19-11.858-16.428"/></svg>